<svg xmlns="http://www.w3.org/2000/svg" viewBox="0 0 77 77" width="77" height="77"><defs></defs><g transform="matrix(1,0,0,1,-0.005001068,-0.005001068)">
<g>
	<g transform="matrix(1,0,0,1,39,39)">
		<g>
			<g>
				<g>
					<path d="M-19.494999,-38.994999C-11.584999,-38.994999 -3.664997,-38.994999 19.495003,-38.994999 C32.494999,-38.994999 38.994999,-32.494999 38.994999,-19.494999 C38.994999,-10.044998 38.994999,-0.584999 38.994999,19.495003 C38.994999,32.494999 32.494999,38.994999 19.495003,38.994999 C9.174999,38.994999 -1.154999,38.994999 -19.494999,38.994999 C-32.494999,38.994999 -38.994999,32.494999 -38.994999,19.495003 C-38.994999,6.345001 -38.994999,-6.805 -38.994999,-19.494999 C-38.994999,-32.494999 -32.494999,-38.994999 -19.494999,-38.994999 " fill="#4f6473"/>
				</g>
				<g>
					<path d="M-19.494999,-38.994999C-6.974998,-38.994999 5.545002,-38.994999 19.495003,-38.994999 M-19.494999,-38.994999C-6.744999,-38.994999 5.995003,-38.994999 19.495003,-38.994999 M19.495003,-38.994999C32.494999,-38.994999 38.994999,-32.494999 38.994999,-19.494999 M19.495003,-38.994999C32.494999,-38.994999 38.994999,-32.494999 38.994999,-19.494999 M38.994999,-19.494999C38.994999,-5.524998 38.994999,8.435001 38.994999,19.495003 M38.994999,-19.494999C38.994999,-8.684999 38.994999,2.135002 38.994999,19.495003 M38.994999,19.495003C38.994999,32.494999 32.494999,38.994999 19.495003,38.994999 M38.994999,19.495003C38.994999,32.494999 32.494999,38.994999 19.495003,38.994999 M19.495003,38.994999C7.755001,38.994999 -3.994999,38.994999 -19.494999,38.994999 M19.495003,38.994999C5.915001,38.994999 -7.674999,38.994999 -19.494999,38.994999 M-19.494999,38.994999C-32.494999,38.994999 -38.994999,32.494999 -38.994999,19.495003 M-19.494999,38.994999C-32.494999,38.994999 -38.994999,32.494999 -38.994999,19.495003 M-38.994999,19.495003C-38.994999,6.575001 -38.994999,-6.344997 -38.994999,-19.494999 M-38.994999,19.495003C-38.994999,7.065002 -38.994999,-5.375 -38.994999,-19.494999 M-38.994999,-19.494999C-38.994999,-32.494999 -32.494999,-38.994999 -19.494999,-38.994999 M-38.994999,-19.494999C-38.994999,-32.494999 -32.494999,-38.994999 -19.494999,-38.994999 " fill="none"/>
				</g>
			</g>
			<g>
				<g>
					<g>
						<path d="M0.393013,-21.02422C-3.266987,-14.874219 -17.906986,9.735781 -21.566986,15.88578 M0.393013,-21.02422C-3.266987,-14.874219 -17.906986,9.735781 -21.566986,15.88578 " fill="none" stroke="#ffffff" stroke-width="4" stroke-linecap="round"/>
					</g>
				</g>
			</g>
			<g>
				<g>
					<g>
						<path d="M0.453056,-20.974352C4.033056,-14.704352 18.363056,10.365648 21.943056,16.625647 M0.453056,-20.974352C4.033056,-14.704352 18.363056,10.365648 21.943056,16.625647 " fill="none" stroke="#ffffff" stroke-width="4" stroke-linecap="round"/>
					</g>
				</g>
			</g>
			<g>
				<g>
					<g>
						<path d="M0.642334,-19.199074C0.262334,-12.239074 -1.267666,15.620926 -1.647666,22.580925 M0.642334,-19.199074C0.262334,-12.239074 -1.267666,15.620926 -1.647666,22.580925 " fill="none" stroke="#ffffff" stroke-width="4" stroke-linecap="round"/>
					</g>
				</g>
			</g>
			<g>
				<g>
					<g>
						<path d="M-7.027828,-6.302708C-6.017828,-5.962708 -1.977828,-4.612708 -0.967828,-4.272708 M-7.027828,-6.302708C-6.017828,-5.962708 -1.977828,-4.612708 -0.967828,-4.272708 " fill="none" stroke="#ffffff" stroke-width="4" stroke-linecap="round"/>
					</g>
				</g>
			</g>
			<g>
				<g>
					<g>
						<path d="M0.413376,-4.335392C1.483376,-4.655392 5.753376,-5.925392 6.823376,-6.245392 M0.413376,-4.335392C1.483376,-4.655392 5.753376,-5.925392 6.823376,-6.245392 " fill="none" stroke="#ffffff" stroke-width="4" stroke-linecap="round"/>
					</g>
				</g>
			</g>
			<g>
				<g>
					<g>
						<path d="M-11.423096,1.332676C-9.763096,1.952676 -3.113095,4.422676 -1.453095,5.042676 M-11.423096,1.332676C-9.763096,1.952676 -3.113095,4.422676 -1.453095,5.042676 " fill="none" stroke="#ffffff" stroke-width="4" stroke-linecap="round"/>
					</g>
				</g>
			</g>
			<g>
				<g>
					<g>
						<path d="M-0.273502,5.165401C1.676498,4.565401 9.456497,2.155401 11.406498,1.555402 M-0.273502,5.165401C1.676498,4.565401 9.456497,2.155401 11.406498,1.555402 " fill="none" stroke="#ffffff" stroke-width="4" stroke-linecap="round"/>
					</g>
				</g>
			</g>
			<g>
				<g>
					<g>
						<path d="M-16.547459,9.407082C-14.077459,10.237082 -4.207458,13.577082 -1.737458,14.407082 M-16.547459,9.407082C-14.077459,10.237082 -4.207458,13.577082 -1.737458,14.407082 " fill="none" stroke="#ffffff" stroke-width="4" stroke-linecap="round"/>
					</g>
				</g>
			</g>
			<g>
				<g>
					<g>
						<path d="M-0.960388,14.703793C1.909612,13.913793 13.379612,10.743793 16.249611,9.953793 M-0.960388,14.703793C1.909612,13.913793 13.379612,10.743793 16.249611,9.953793 " fill="none" stroke="#ffffff" stroke-width="4" stroke-linecap="round"/>
					</g>
				</g>
			</g>
		</g>
	</g>
</g></g></svg>